<svg xmlns="http://www.w3.org/2000/svg" width="42" height="42" viewBox="0 0 42 42">
<defs><radialGradient id="g"><stop stop-color="#fff" stop-opacity="0.345"/><stop offset="0.35" stop-color="#ff92e0" stop-opacity="0.357"/><stop offset="1" stop-color="#ff2bb8" stop-opacity="0"/></radialGradient></defs>
<circle cx="21" cy="21" r="20" fill="url(#g)"/>
<g transform="translate(21 21) scale(0.957) translate(-21 -21)">
<path d="M21 32 C17 28 8 22 8 16 C8 8 17 7 21 14 C25 7 34 8 34 16 C34 22 25 28 21 32Z" fill="#d969c4" opacity="0.85"/>
<path d="M21 30 C17 26 10 21 10 16 C10 10 17 9 21 16 C25 9 32 10 32 16 C32 21 25 26 21 30Z" fill="#ffe3fa" stroke="#fff" stroke-width="0.7"/>
<path d="M14 13 Q17 11 19 15" fill="none" stroke="white" stroke-width="1.6" stroke-linecap="round" opacity="0.9"/>
</g></svg>